<mxfile host="Electron" modified="2024-06-16T14:06:56.796Z" agent="Mozilla/5.0 (Windows NT 10.0; Win64; x64) AppleWebKit/537.36 (KHTML, like Gecko) draw.io/24.5.3 Chrome/124.0.6367.207 Electron/30.0.6 Safari/537.36" etag="QHflfJsU2Ezm5FJxfmWc" version="24.5.3" type="device" pages="3">
  <diagram id="gMngLW4jEP_mwWQlNc8c" name="ConnectionProvider">
    <mxGraphModel dx="1418" dy="2023" grid="1" gridSize="10" guides="1" tooltips="1" connect="1" arrows="1" fold="1" page="1" pageScale="1" pageWidth="827" pageHeight="1169" math="0" shadow="0">
      <root>
        <mxCell id="0" />
        <mxCell id="1" parent="0" />
        <mxCell id="ZhsNxCUsWvudaTYQ64_n-6" value="Vertical Container" style="swimlane;whiteSpace=wrap;html=1;fontFamily=Fira Code;fontSource=https%3A%2F%2Ffonts.googleapis.com%2Fcss%3Ffamily%3DFira%2BCode;sketch=1;curveFitting=1;jiggle=2;" vertex="1" parent="1">
          <mxGeometry x="10" y="10" width="200" height="200" as="geometry" />
        </mxCell>
        <mxCell id="ZhsNxCUsWvudaTYQ64_n-1" value="ICUD" style="rounded=1;whiteSpace=wrap;html=1;fillColor=#d5e8d4;strokeColor=#82b366;fontFamily=Fira Code;fontSource=https%3A%2F%2Ffonts.googleapis.com%2Fcss%3Ffamily%3DFira%2BCode;sketch=1;curveFitting=1;jiggle=2;" vertex="1" parent="ZhsNxCUsWvudaTYQ64_n-6">
          <mxGeometry x="40" y="40" width="120" height="60" as="geometry" />
        </mxCell>
        <mxCell id="ZhsNxCUsWvudaTYQ64_n-4" value="IQuery" style="rounded=1;whiteSpace=wrap;html=1;fillColor=#d5e8d4;strokeColor=#82b366;fontFamily=Fira Code;fontSource=https%3A%2F%2Ffonts.googleapis.com%2Fcss%3Ffamily%3DFira%2BCode;sketch=1;curveFitting=1;jiggle=2;" vertex="1" parent="ZhsNxCUsWvudaTYQ64_n-6">
          <mxGeometry x="40" y="110" width="120" height="60" as="geometry" />
        </mxCell>
        <mxCell id="ZhsNxCUsWvudaTYQ64_n-18" value="" style="edgeStyle=orthogonalEdgeStyle;rounded=0;sketch=1;hachureGap=4;jiggle=2;curveFitting=1;orthogonalLoop=1;jettySize=auto;html=1;fontFamily=Architects Daughter;fontSource=https%3A%2F%2Ffonts.googleapis.com%2Fcss%3Ffamily%3DArchitects%2BDaughter;" edge="1" parent="1" source="ZhsNxCUsWvudaTYQ64_n-7" target="ZhsNxCUsWvudaTYQ64_n-16">
          <mxGeometry relative="1" as="geometry" />
        </mxCell>
        <mxCell id="ZhsNxCUsWvudaTYQ64_n-7" value="Vertical Container" style="swimlane;whiteSpace=wrap;html=1;fontFamily=Fira Code;fontSource=https%3A%2F%2Ffonts.googleapis.com%2Fcss%3Ffamily%3DFira%2BCode;sketch=1;curveFitting=1;jiggle=2;" vertex="1" parent="1">
          <mxGeometry x="290" y="10" width="200" height="200" as="geometry" />
        </mxCell>
        <mxCell id="ZhsNxCUsWvudaTYQ64_n-8" value="ITransaction" style="rounded=1;whiteSpace=wrap;html=1;fillColor=#d5e8d4;strokeColor=#82b366;fontFamily=Fira Code;fontSource=https%3A%2F%2Ffonts.googleapis.com%2Fcss%3Ffamily%3DFira%2BCode;sketch=1;curveFitting=1;jiggle=2;" vertex="1" parent="ZhsNxCUsWvudaTYQ64_n-7">
          <mxGeometry x="40" y="40" width="120" height="60" as="geometry" />
        </mxCell>
        <mxCell id="ZhsNxCUsWvudaTYQ64_n-11" value="Vertical Container" style="swimlane;whiteSpace=wrap;html=1;fontFamily=Fira Code;fontSource=https%3A%2F%2Ffonts.googleapis.com%2Fcss%3Ffamily%3DFira%2BCode;sketch=1;curveFitting=1;jiggle=2;" vertex="1" parent="1">
          <mxGeometry x="10" y="330" width="200" height="200" as="geometry" />
        </mxCell>
        <mxCell id="ZhsNxCUsWvudaTYQ64_n-12" value="ICache" style="rounded=1;whiteSpace=wrap;html=1;fillColor=#d5e8d4;strokeColor=#82b366;fontFamily=Fira Code;fontSource=https%3A%2F%2Ffonts.googleapis.com%2Fcss%3Ffamily%3DFira%2BCode;sketch=1;curveFitting=1;jiggle=2;" vertex="1" parent="ZhsNxCUsWvudaTYQ64_n-11">
          <mxGeometry x="40" y="40" width="120" height="60" as="geometry" />
        </mxCell>
        <mxCell id="ZhsNxCUsWvudaTYQ64_n-15" style="edgeStyle=orthogonalEdgeStyle;rounded=0;sketch=1;hachureGap=4;jiggle=2;curveFitting=1;orthogonalLoop=1;jettySize=auto;html=1;fontFamily=Architects Daughter;fontSource=https%3A%2F%2Ffonts.googleapis.com%2Fcss%3Ffamily%3DArchitects%2BDaughter;" edge="1" parent="1" source="ZhsNxCUsWvudaTYQ64_n-4" target="ZhsNxCUsWvudaTYQ64_n-11">
          <mxGeometry relative="1" as="geometry" />
        </mxCell>
        <mxCell id="ZhsNxCUsWvudaTYQ64_n-16" value="Vertical Container" style="swimlane;whiteSpace=wrap;html=1;fontFamily=Fira Code;fontSource=https%3A%2F%2Ffonts.googleapis.com%2Fcss%3Ffamily%3DFira%2BCode;sketch=1;curveFitting=1;jiggle=2;" vertex="1" parent="1">
          <mxGeometry x="570" y="10" width="200" height="240" as="geometry" />
        </mxCell>
        <mxCell id="ZhsNxCUsWvudaTYQ64_n-17" value="IValueObject" style="rounded=1;whiteSpace=wrap;html=1;fillColor=#d5e8d4;strokeColor=#82b366;fontFamily=Fira Code;fontSource=https%3A%2F%2Ffonts.googleapis.com%2Fcss%3Ffamily%3DFira%2BCode;sketch=1;curveFitting=1;jiggle=2;" vertex="1" parent="ZhsNxCUsWvudaTYQ64_n-16">
          <mxGeometry x="40" y="40" width="120" height="60" as="geometry" />
        </mxCell>
        <mxCell id="ZhsNxCUsWvudaTYQ64_n-19" value="IEntity&amp;lt;T&amp;gt;" style="rounded=1;whiteSpace=wrap;html=1;fillColor=#d5e8d4;strokeColor=#82b366;fontFamily=Fira Code;fontSource=https%3A%2F%2Ffonts.googleapis.com%2Fcss%3Ffamily%3DFira%2BCode;sketch=1;curveFitting=1;jiggle=2;" vertex="1" parent="ZhsNxCUsWvudaTYQ64_n-16">
          <mxGeometry x="40" y="150" width="120" height="60" as="geometry" />
        </mxCell>
        <mxCell id="ZhsNxCUsWvudaTYQ64_n-21" value="Vertical Container" style="swimlane;whiteSpace=wrap;html=1;fontFamily=Fira Code;fontSource=https%3A%2F%2Ffonts.googleapis.com%2Fcss%3Ffamily%3DFira%2BCode;sketch=1;curveFitting=1;jiggle=2;" vertex="1" parent="1">
          <mxGeometry x="570" y="330" width="200" height="240" as="geometry" />
        </mxCell>
        <mxCell id="ZhsNxCUsWvudaTYQ64_n-22" value="IAggregateRoot&amp;lt;T&amp;gt;" style="rounded=1;whiteSpace=wrap;html=1;fillColor=#d5e8d4;strokeColor=#82b366;fontFamily=Fira Code;fontSource=https%3A%2F%2Ffonts.googleapis.com%2Fcss%3Ffamily%3DFira%2BCode;sketch=1;curveFitting=1;jiggle=2;" vertex="1" parent="ZhsNxCUsWvudaTYQ64_n-21">
          <mxGeometry x="40" y="40" width="120" height="60" as="geometry" />
        </mxCell>
        <mxCell id="ZhsNxCUsWvudaTYQ64_n-23" value="IEntity&amp;lt;T&amp;gt;" style="rounded=1;whiteSpace=wrap;html=1;fillColor=#d5e8d4;strokeColor=#82b366;fontFamily=Fira Code;fontSource=https%3A%2F%2Ffonts.googleapis.com%2Fcss%3Ffamily%3DFira%2BCode;sketch=1;curveFitting=1;jiggle=2;" vertex="1" parent="ZhsNxCUsWvudaTYQ64_n-21">
          <mxGeometry x="40" y="150" width="120" height="60" as="geometry" />
        </mxCell>
        <mxCell id="ZhsNxCUsWvudaTYQ64_n-25" style="edgeStyle=orthogonalEdgeStyle;rounded=0;sketch=1;hachureGap=4;jiggle=2;curveFitting=1;orthogonalLoop=1;jettySize=auto;html=1;entryX=0.5;entryY=0;entryDx=0;entryDy=0;fontFamily=Architects Daughter;fontSource=https%3A%2F%2Ffonts.googleapis.com%2Fcss%3Ffamily%3DArchitects%2BDaughter;" edge="1" parent="1" source="ZhsNxCUsWvudaTYQ64_n-19" target="ZhsNxCUsWvudaTYQ64_n-21">
          <mxGeometry relative="1" as="geometry" />
        </mxCell>
        <mxCell id="ZhsNxCUsWvudaTYQ64_n-26" value="Vertical Container" style="swimlane;whiteSpace=wrap;html=1;fontFamily=Fira Code;fontSource=https%3A%2F%2Ffonts.googleapis.com%2Fcss%3Ffamily%3DFira%2BCode;sketch=1;curveFitting=1;jiggle=2;" vertex="1" parent="1">
          <mxGeometry x="1030" y="-125" width="200" height="545" as="geometry" />
        </mxCell>
        <mxCell id="ZhsNxCUsWvudaTYQ64_n-27" value="Email" style="rounded=1;whiteSpace=wrap;html=1;fillColor=#d5e8d4;strokeColor=#82b366;fontFamily=Fira Code;fontSource=https%3A%2F%2Ffonts.googleapis.com%2Fcss%3Ffamily%3DFira%2BCode;sketch=1;curveFitting=1;jiggle=2;" vertex="1" parent="ZhsNxCUsWvudaTYQ64_n-26">
          <mxGeometry x="40" y="40" width="120" height="60" as="geometry" />
        </mxCell>
        <mxCell id="ZhsNxCUsWvudaTYQ64_n-28" value="Date" style="rounded=1;whiteSpace=wrap;html=1;fillColor=#d5e8d4;strokeColor=#82b366;fontFamily=Fira Code;fontSource=https%3A%2F%2Ffonts.googleapis.com%2Fcss%3Ffamily%3DFira%2BCode;sketch=1;curveFitting=1;jiggle=2;" vertex="1" parent="ZhsNxCUsWvudaTYQ64_n-26">
          <mxGeometry x="40" y="130" width="120" height="60" as="geometry" />
        </mxCell>
        <mxCell id="ZhsNxCUsWvudaTYQ64_n-31" value="FirstName" style="rounded=1;whiteSpace=wrap;html=1;fillColor=#d5e8d4;strokeColor=#82b366;fontFamily=Fira Code;fontSource=https%3A%2F%2Ffonts.googleapis.com%2Fcss%3Ffamily%3DFira%2BCode;sketch=1;curveFitting=1;jiggle=2;" vertex="1" parent="ZhsNxCUsWvudaTYQ64_n-26">
          <mxGeometry x="40" y="295" width="120" height="60" as="geometry" />
        </mxCell>
        <mxCell id="ZhsNxCUsWvudaTYQ64_n-33" value="LasstName" style="rounded=1;whiteSpace=wrap;html=1;fillColor=#d5e8d4;strokeColor=#82b366;fontFamily=Fira Code;fontSource=https%3A%2F%2Ffonts.googleapis.com%2Fcss%3Ffamily%3DFira%2BCode;sketch=1;curveFitting=1;jiggle=2;" vertex="1" parent="ZhsNxCUsWvudaTYQ64_n-26">
          <mxGeometry x="40" y="375" width="120" height="60" as="geometry" />
        </mxCell>
        <mxCell id="ZhsNxCUsWvudaTYQ64_n-36" value="Time" style="rounded=1;whiteSpace=wrap;html=1;fillColor=#d5e8d4;strokeColor=#82b366;fontFamily=Fira Code;fontSource=https%3A%2F%2Ffonts.googleapis.com%2Fcss%3Ffamily%3DFira%2BCode;sketch=1;curveFitting=1;jiggle=2;" vertex="1" parent="ZhsNxCUsWvudaTYQ64_n-26">
          <mxGeometry x="40" y="215" width="120" height="60" as="geometry" />
        </mxCell>
        <mxCell id="ZhsNxCUsWvudaTYQ64_n-30" style="edgeStyle=orthogonalEdgeStyle;rounded=0;sketch=1;hachureGap=4;jiggle=2;curveFitting=1;orthogonalLoop=1;jettySize=auto;html=1;entryX=0;entryY=0.5;entryDx=0;entryDy=0;fontFamily=Architects Daughter;fontSource=https%3A%2F%2Ffonts.googleapis.com%2Fcss%3Ffamily%3DArchitects%2BDaughter;" edge="1" parent="1" source="ZhsNxCUsWvudaTYQ64_n-17" target="ZhsNxCUsWvudaTYQ64_n-26">
          <mxGeometry relative="1" as="geometry" />
        </mxCell>
      </root>
    </mxGraphModel>
  </diagram>
  <diagram name="Page-1" id="qKaU0Q-FvelUafF9ekBP">
    <mxGraphModel dx="1434" dy="836" grid="1" gridSize="10" guides="1" tooltips="1" connect="1" arrows="1" fold="1" page="1" pageScale="1" pageWidth="850" pageHeight="1100" math="0" shadow="0">
      <root>
        <mxCell id="0" />
        <mxCell id="1" parent="0" />
        <mxCell id="NtewO8Oyfw1NCg4WtKrz-3" value="" style="edgeStyle=orthogonalEdgeStyle;rounded=0;orthogonalLoop=1;jettySize=auto;html=1;entryX=0;entryY=0.5;entryDx=0;entryDy=0;" parent="1" source="NtewO8Oyfw1NCg4WtKrz-1" target="NtewO8Oyfw1NCg4WtKrz-2" edge="1">
          <mxGeometry relative="1" as="geometry" />
        </mxCell>
        <mxCell id="NtewO8Oyfw1NCg4WtKrz-7" style="edgeStyle=orthogonalEdgeStyle;rounded=0;orthogonalLoop=1;jettySize=auto;html=1;entryX=0;entryY=0.5;entryDx=0;entryDy=0;" parent="1" source="NtewO8Oyfw1NCg4WtKrz-1" target="NtewO8Oyfw1NCg4WtKrz-5" edge="1">
          <mxGeometry relative="1" as="geometry" />
        </mxCell>
        <mxCell id="NtewO8Oyfw1NCg4WtKrz-12" style="edgeStyle=orthogonalEdgeStyle;rounded=0;orthogonalLoop=1;jettySize=auto;html=1;entryX=0.5;entryY=0;entryDx=0;entryDy=0;" parent="1" source="NtewO8Oyfw1NCg4WtKrz-1" target="NtewO8Oyfw1NCg4WtKrz-8" edge="1">
          <mxGeometry relative="1" as="geometry" />
        </mxCell>
        <mxCell id="NtewO8Oyfw1NCg4WtKrz-1" value="Cache" style="rounded=1;whiteSpace=wrap;html=1;fillColor=#dae8fc;strokeColor=#6c8ebf;" parent="1" vertex="1">
          <mxGeometry x="40" y="40" width="120" height="60" as="geometry" />
        </mxCell>
        <mxCell id="NtewO8Oyfw1NCg4WtKrz-2" value="InMemory" style="whiteSpace=wrap;html=1;rounded=1;fillColor=#f5f5f5;fontColor=#333333;strokeColor=#666666;" parent="1" vertex="1">
          <mxGeometry x="130" y="150" width="120" height="60" as="geometry" />
        </mxCell>
        <mxCell id="NtewO8Oyfw1NCg4WtKrz-5" value="Redis" style="whiteSpace=wrap;html=1;rounded=1;fillColor=#f5f5f5;fontColor=#333333;strokeColor=#666666;" parent="1" vertex="1">
          <mxGeometry x="130" y="230" width="120" height="60" as="geometry" />
        </mxCell>
        <mxCell id="NtewO8Oyfw1NCg4WtKrz-8" value="ICachable&amp;lt;T&amp;gt;" style="swimlane;fontStyle=0;childLayout=stackLayout;horizontal=1;startSize=30;horizontalStack=0;resizeParent=1;resizeParentMax=0;resizeLast=0;collapsible=1;marginBottom=0;whiteSpace=wrap;html=1;" parent="1" vertex="1">
          <mxGeometry x="425" y="90" width="140" height="120" as="geometry" />
        </mxCell>
        <mxCell id="NtewO8Oyfw1NCg4WtKrz-9" value="Item 1" style="text;strokeColor=none;fillColor=none;align=left;verticalAlign=middle;spacingLeft=4;spacingRight=4;overflow=hidden;points=[[0,0.5],[1,0.5]];portConstraint=eastwest;rotatable=0;whiteSpace=wrap;html=1;" parent="NtewO8Oyfw1NCg4WtKrz-8" vertex="1">
          <mxGeometry y="30" width="140" height="30" as="geometry" />
        </mxCell>
        <mxCell id="NtewO8Oyfw1NCg4WtKrz-10" value="Item 2" style="text;strokeColor=none;fillColor=none;align=left;verticalAlign=middle;spacingLeft=4;spacingRight=4;overflow=hidden;points=[[0,0.5],[1,0.5]];portConstraint=eastwest;rotatable=0;whiteSpace=wrap;html=1;" parent="NtewO8Oyfw1NCg4WtKrz-8" vertex="1">
          <mxGeometry y="60" width="140" height="30" as="geometry" />
        </mxCell>
        <mxCell id="NtewO8Oyfw1NCg4WtKrz-11" value="Item 3" style="text;strokeColor=none;fillColor=none;align=left;verticalAlign=middle;spacingLeft=4;spacingRight=4;overflow=hidden;points=[[0,0.5],[1,0.5]];portConstraint=eastwest;rotatable=0;whiteSpace=wrap;html=1;" parent="NtewO8Oyfw1NCg4WtKrz-8" vertex="1">
          <mxGeometry y="90" width="140" height="30" as="geometry" />
        </mxCell>
      </root>
    </mxGraphModel>
  </diagram>
  <diagram id="Ne23yOoz-tXJmSxuFy1E" name="Page-2">
    <mxGraphModel dx="1434" dy="836" grid="1" gridSize="10" guides="1" tooltips="1" connect="1" arrows="1" fold="1" page="1" pageScale="1" pageWidth="850" pageHeight="1100" math="0" shadow="0">
      <root>
        <mxCell id="0" />
        <mxCell id="1" parent="0" />
        <mxCell id="tMRPGCzTdlgyJ16GRIbu-27" value="Connection String" style="rounded=1;whiteSpace=wrap;html=1;fillColor=#dae8fc;strokeColor=#6c8ebf;" parent="1" vertex="1">
          <mxGeometry x="390" y="370" width="120" height="60" as="geometry" />
        </mxCell>
        <mxCell id="tMRPGCzTdlgyJ16GRIbu-34" style="edgeStyle=orthogonalEdgeStyle;rounded=0;orthogonalLoop=1;jettySize=auto;html=1;" parent="1" source="tMRPGCzTdlgyJ16GRIbu-28" target="tMRPGCzTdlgyJ16GRIbu-27" edge="1">
          <mxGeometry relative="1" as="geometry" />
        </mxCell>
        <mxCell id="tMRPGCzTdlgyJ16GRIbu-28" value="IDbConnection" style="rounded=1;whiteSpace=wrap;html=1;fillColor=#d5e8d4;strokeColor=#82b366;" parent="1" vertex="1">
          <mxGeometry x="390" y="250" width="120" height="60" as="geometry" />
        </mxCell>
        <mxCell id="tMRPGCzTdlgyJ16GRIbu-32" style="edgeStyle=orthogonalEdgeStyle;rounded=0;orthogonalLoop=1;jettySize=auto;html=1;" parent="1" source="tMRPGCzTdlgyJ16GRIbu-30" target="tMRPGCzTdlgyJ16GRIbu-28" edge="1">
          <mxGeometry relative="1" as="geometry" />
        </mxCell>
        <mxCell id="wP5w_A6uv57l26Ph7zOD-2" value="" style="edgeStyle=orthogonalEdgeStyle;rounded=0;orthogonalLoop=1;jettySize=auto;html=1;" parent="1" source="tMRPGCzTdlgyJ16GRIbu-30" target="tMRPGCzTdlgyJ16GRIbu-37" edge="1">
          <mxGeometry relative="1" as="geometry" />
        </mxCell>
        <mxCell id="tMRPGCzTdlgyJ16GRIbu-30" value="DbContext" style="rounded=1;whiteSpace=wrap;html=1;fillColor=#ffe6cc;strokeColor=#d79b00;" parent="1" vertex="1">
          <mxGeometry x="600" y="130" width="120" height="60" as="geometry" />
        </mxCell>
        <mxCell id="tMRPGCzTdlgyJ16GRIbu-35" value="Constructor" style="swimlane;fontStyle=0;childLayout=stackLayout;horizontal=1;startSize=30;horizontalStack=0;resizeParent=1;resizeParentMax=0;resizeLast=0;collapsible=1;marginBottom=0;whiteSpace=wrap;html=1;fillColor=#f5f5f5;fontColor=#333333;strokeColor=#666666;" parent="1" vertex="1">
          <mxGeometry x="830" y="85" width="320" height="120" as="geometry" />
        </mxCell>
        <mxCell id="tMRPGCzTdlgyJ16GRIbu-36" value="DbContext from ServiceProvider" style="text;strokeColor=none;fillColor=none;align=left;verticalAlign=middle;spacingLeft=4;spacingRight=4;overflow=hidden;points=[[0,0.5],[1,0.5]];portConstraint=eastwest;rotatable=0;whiteSpace=wrap;html=1;" parent="tMRPGCzTdlgyJ16GRIbu-35" vertex="1">
          <mxGeometry y="30" width="320" height="30" as="geometry" />
        </mxCell>
        <mxCell id="tMRPGCzTdlgyJ16GRIbu-37" value="ConnectionString with EngineType(Sql server, Sqlite ,...)" style="text;strokeColor=none;fillColor=none;align=left;verticalAlign=middle;spacingLeft=4;spacingRight=4;overflow=hidden;points=[[0,0.5],[1,0.5]];portConstraint=eastwest;rotatable=0;whiteSpace=wrap;html=1;" parent="tMRPGCzTdlgyJ16GRIbu-35" vertex="1">
          <mxGeometry y="60" width="320" height="30" as="geometry" />
        </mxCell>
        <mxCell id="tMRPGCzTdlgyJ16GRIbu-38" value="DbOption&amp;lt;DbContext&amp;gt;" style="text;strokeColor=none;fillColor=none;align=left;verticalAlign=middle;spacingLeft=4;spacingRight=4;overflow=hidden;points=[[0,0.5],[1,0.5]];portConstraint=eastwest;rotatable=0;whiteSpace=wrap;html=1;" parent="tMRPGCzTdlgyJ16GRIbu-35" vertex="1">
          <mxGeometry y="90" width="320" height="30" as="geometry" />
        </mxCell>
      </root>
    </mxGraphModel>
  </diagram>
</mxfile>
